<svg id="Layer_1" enable-background="new 0 0 482 482" height="512" viewBox="0 0 482 482" width="512" xmlns="http://www.w3.org/2000/svg"><path d="m473 118.448v244.8c0 19.871-16.127 36-36 36h-345.599c-19.871 0-36-16.127-36-36v-244.8c0-19.881 16.119-36 36-36h345.599c19.881 0 36 16.119 36 36z" fill="#ffec8f"/><path d="m306.005 232.253 156.447 156.447c-6.516 6.516-15.516 10.548-25.452 10.548h-345.599c-9.936 0-18.936-4.032-25.452-10.548l156.447-156.447 22.932 11.133c11.916 5.787 25.83 5.787 37.746 0z" fill="#ffe773"/><path d="m473 118.448v22.207c0 10.705-9.729 18.426-20.033 16.489-97.876-18.399-196.606-3.888-283.929 41.649-4.707 2.455-10.295 2.544-15.07.225l-98.568-47.873v-32.697c0-19.882 16.118-36 36-36h345.6c19.882 0 36 16.118 36 36z" fill="#fff0a6"/><path d="m473 151.145v30.15l-146.7 71.253-20.295-20.295z" fill="#ffe773"/><path d="m326.3 252.548c-24.777 12.031-14.595 7.088-43.227 20.988-11.916 5.787-25.83 5.787-37.746 0-28.626-13.897-18.438-8.951-43.227-20.988l20.295-20.295 22.932 11.133c11.916 5.787 25.83 5.787 37.746 0l22.932-11.133z" fill="#fada86"/><path d="m222.395 232.253-20.295 20.295-146.699-71.253v-30.15z" fill="#ffe773"/><path d="m482 122.448v237.104c0 27.019-21.981 49-49 49h-368c-4.971 0-9-4.029-9-9s4.029-9 9-9h368c17.094 0 31-13.907 31-31v-237.104c0-17.093-13.906-31-31-31h-424c-4.971 0-9-4.029-9-9s4.029-9 9-9h424c27.019 0 49 21.982 49 49zm-73.308 49.99-129.734 63.003c-9.506 4.616-20.41 4.616-29.916 0l-84.634-41.101c-4.473-2.172-9.856-.308-12.027 4.164-2.171 4.471-.307 9.856 4.164 12.027l84.634 41.101c14.5 7.043 31.138 7.044 45.643 0l129.734-63.003c4.471-2.171 6.336-7.556 4.164-12.027-2.171-4.47-7.552-6.336-12.028-4.164zm-308.423 190.845c2.303 0 4.606-.879 6.364-2.636l79.05-79.05c3.515-3.515 3.515-9.213 0-12.728s-9.213-3.515-12.728 0l-79.05 79.05c-5.688 5.687-1.581 15.364 6.364 15.364zm242.047-94.414c-3.515 3.515-3.515 9.213 0 12.728l79.051 79.05c1.758 1.758 4.061 2.636 6.364 2.636 7.946 0 12.051-9.677 6.364-15.364l-79.051-79.05c-3.515-3.515-9.212-3.515-12.728 0zm-214.316-116.162h-41.667c-4.971 0-9 4.029-9 9s4.029 9 9 9h41.667c4.971 0 9-4.029 9-9s-4.029-9-9-9zm-77 18c4.971 0 9-4.029 9-9s-4.029-9-9-9h-11c-4.971 0-9 4.029-9 9s4.029 9 9 9zm28 149.5c0-4.971-4.029-9-9-9h-21c-4.971 0-9 4.029-9 9s4.029 9 9 9h21c4.971 0 9-4.029 9-9zm10-79.25c0-4.971-4.029-9-9-9h-61c-4.971 0-9 4.029-9 9s4.029 9 9 9h61c4.971 0 9-4.029 9-9z"/></svg>