<?xml version="1.0" encoding="iso-8859-1"?>
<!-- Generator: Adobe Illustrator 19.0.0, SVG Export Plug-In . SVG Version: 6.00 Build 0)  -->
<svg version="1.1" id="Capa_1" xmlns="http://www.w3.org/2000/svg" xmlns:xlink="http://www.w3.org/1999/xlink" x="0px" y="0px"
	 viewBox="0 0 512 512" style="enable-background:new 0 0 512 512;" xml:space="preserve">
<path style="fill:#E7ECED;" d="M471.68,243.865L256,50.499L40.32,243.865c-1.911,1.715-4.028,2.799-6.187,3.601v256h443.733v-256
	C475.708,246.663,473.591,245.58,471.68,243.865z"/>
<polygon style="fill:#B02721;" points="426.667,182.442 426.667,51.199 375.467,51.199 375.467,136.532 "/>
<path style="fill:#25AE88;" d="M256,8.532L14.874,224.716c-4.036,3.618-6.34,8.781-6.34,14.199l0,0
	c0,16.486,19.507,25.199,31.787,14.191L256,59.732l215.68,193.374c12.279,10.999,31.787,2.287,31.787-14.191l0,0
	c0-5.419-2.304-10.573-6.34-14.191L256,8.532z"/>
<rect x="358.4" y="25.599" style="fill:#911C1C;" width="85.333" height="34.133"/>
<g>
	<circle style="fill:#A8C2E8;" cx="256" cy="179.199" r="42.667"/>
	<rect x="93.867" y="255.999" style="fill:#A8C2E8;" width="102.4" height="102.4"/>
</g>
<rect x="256" y="392.532" style="fill:#BF5A45;" width="85.333" height="110.933"/>
<rect x="170.667" y="392.532" style="fill:#6C342A;" width="85.333" height="110.933"/>
<rect x="93.867" y="255.999" style="fill:#366DB6;" width="102.4" height="34.133"/>
<rect x="315.733" y="255.999" style="fill:#A8C2E8;" width="102.4" height="102.4"/>
<rect x="315.733" y="255.999" style="fill:#366DB6;" width="102.4" height="34.133"/>
<g>
	<path style="fill:#4D007E;" d="M484.301,266.563c-6.613,0-13.099-2.423-18.313-7.1L256,71.201L46.012,259.463
		c-8.218,7.364-19.593,9.148-29.67,4.651C6.263,259.609,0,249.949,0,238.915c0-7.834,3.345-15.317,9.173-20.548L250.308,2.183
		c3.243-2.91,8.149-2.91,11.392,0l241.126,216.183c5.828,5.222,9.173,12.715,9.173,20.548c0,11.034-6.263,20.693-16.341,25.199
		C491.972,265.753,488.115,266.563,484.301,266.563z M256,51.199c2.039,0,4.079,0.725,5.692,2.176l215.68,193.374
		c3.191,2.859,7.424,3.524,11.324,1.775c3.908-1.741,6.238-5.333,6.238-9.609c0-2.987-1.28-5.845-3.499-7.842L256,20.001
		L20.565,231.073c-2.219,1.997-3.499,4.855-3.499,7.842c0,4.275,2.33,7.868,6.238,9.609c3.9,1.741,8.132,1.084,11.324-1.775
		l215.68-193.365C251.921,51.924,253.961,51.199,256,51.199z"/>
	<path style="fill:#4D007E;" d="M477.867,511.999H34.133c-4.71,0-8.533-3.823-8.533-8.533V256.707c0-3.567,2.219-6.758,5.555-8.004
		c1.51-0.563,2.586-1.169,3.465-1.954L250.3,53.383c3.243-2.91,8.149-2.91,11.392,0l215.68,193.374l0,0
		c0.887,0.794,1.954,1.399,3.465,1.954c3.345,1.237,5.564,4.429,5.564,7.996v246.758C486.4,508.176,482.577,511.999,477.867,511.999
		z M42.667,494.932h426.667V261.981c-1.195-0.751-2.313-1.596-3.345-2.517l0,0L256,71.201L46.012,259.463
		c-1.033,0.922-2.142,1.766-3.345,2.517V494.932z"/>
	<path style="fill:#4D007E;" d="M443.733,68.266H358.4c-4.71,0-8.533-3.823-8.533-8.533V25.599c0-4.71,3.823-8.533,8.533-8.533
		h85.333c4.71,0,8.533,3.823,8.533,8.533v34.133C452.267,64.443,448.444,68.266,443.733,68.266z M366.933,51.199H435.2V34.132
		h-68.267V51.199z"/>
	<path style="fill:#4D007E;" d="M426.667,170.077c-2.065,0-4.105-0.751-5.7-2.176L369.766,122c-1.801-1.621-2.833-3.934-2.833-6.357
		v-55.91c0-4.71,3.823-8.533,8.533-8.533h51.2c4.71,0,8.533,3.823,8.533,8.533v101.811c0,3.371-1.98,6.417-5.052,7.791
		C429.03,169.838,427.844,170.077,426.667,170.077z M384,111.837l34.133,30.601V68.266H384V111.837z"/>
	<path style="fill:#4D007E;" d="M256,230.399c-28.228,0-51.2-22.963-51.2-51.2s22.972-51.2,51.2-51.2s51.2,22.963,51.2,51.2
		S284.228,230.399,256,230.399z M256,145.066c-18.825,0-34.133,15.309-34.133,34.133s15.309,34.133,34.133,34.133
		c18.825,0,34.133-15.309,34.133-34.133S274.825,145.066,256,145.066z"/>
	<path style="fill:#4D007E;" d="M418.133,366.932h-102.4c-4.71,0-8.533-3.823-8.533-8.533v-102.4c0-4.71,3.823-8.533,8.533-8.533
		h102.4c4.71,0,8.533,3.823,8.533,8.533v102.4C426.667,363.109,422.844,366.932,418.133,366.932z M324.267,349.866H409.6v-85.333
		h-85.333V349.866z"/>
	<path style="fill:#4D007E;" d="M196.267,366.932h-102.4c-4.71,0-8.533-3.823-8.533-8.533v-102.4c0-4.71,3.823-8.533,8.533-8.533
		h102.4c4.71,0,8.533,3.823,8.533,8.533v102.4C204.8,363.109,200.977,366.932,196.267,366.932z M102.4,349.866h85.333v-85.333H102.4
		V349.866z"/>
	<path style="fill:#4D007E;" d="M418.133,298.666h-102.4c-4.71,0-8.533-3.823-8.533-8.533c0-4.71,3.823-8.533,8.533-8.533h102.4
		c4.71,0,8.533,3.823,8.533,8.533C426.667,294.843,422.844,298.666,418.133,298.666z"/>
	<path style="fill:#4D007E;" d="M366.933,324.266c-4.71,0-8.533-3.823-8.533-8.533v-25.6c0-4.71,3.823-8.533,8.533-8.533
		s8.533,3.823,8.533,8.533v25.6C375.467,320.443,371.644,324.266,366.933,324.266z"/>
	<path style="fill:#4D007E;" d="M196.267,298.666h-102.4c-4.71,0-8.533-3.823-8.533-8.533c0-4.71,3.823-8.533,8.533-8.533h102.4
		c4.71,0,8.533,3.823,8.533,8.533C204.8,294.843,200.977,298.666,196.267,298.666z"/>
	<path style="fill:#4D007E;" d="M145.067,324.266c-4.71,0-8.533-3.823-8.533-8.533v-25.6c0-4.71,3.823-8.533,8.533-8.533
		c4.71,0,8.533,3.823,8.533,8.533v25.6C153.6,320.443,149.777,324.266,145.067,324.266z"/>
	<path style="fill:#4D007E;" d="M341.333,511.999H256c-4.71,0-8.533-3.823-8.533-8.533V392.532c0-4.71,3.823-8.533,8.533-8.533
		h85.333c4.71,0,8.533,3.823,8.533,8.533v110.933C349.867,508.176,346.044,511.999,341.333,511.999z M264.533,494.932H332.8v-93.867
		h-68.267V494.932z"/>
	<path style="fill:#4D007E;" d="M256,511.999h-85.333c-4.71,0-8.533-3.823-8.533-8.533V392.532c0-4.71,3.823-8.533,8.533-8.533H256
		c4.71,0,8.533,3.823,8.533,8.533v110.933C264.533,508.176,260.71,511.999,256,511.999z M179.2,494.932h68.267v-93.867H179.2
		V494.932z"/>
	<path style="fill:#4D007E;" d="M221.867,469.332c-4.71,0-8.533-3.823-8.533-8.533v-17.067c0-4.71,3.823-8.533,8.533-8.533
		c4.71,0,8.533,3.823,8.533,8.533v17.067C230.4,465.509,226.577,469.332,221.867,469.332z"/>
	<path style="fill:#4D007E;" d="M290.133,469.332c-4.71,0-8.533-3.823-8.533-8.533v-17.067c0-4.71,3.823-8.533,8.533-8.533
		c4.71,0,8.533,3.823,8.533,8.533v17.067C298.667,465.509,294.844,469.332,290.133,469.332z"/>
</g>
<g>
</g>
<g>
</g>
<g>
</g>
<g>
</g>
<g>
</g>
<g>
</g>
<g>
</g>
<g>
</g>
<g>
</g>
<g>
</g>
<g>
</g>
<g>
</g>
<g>
</g>
<g>
</g>
<g>
</g>
</svg>
