<svg id="filled_outline" enable-background="new 0 0 512 512" height="512" viewBox="0 0 512 512" width="512" xmlns="http://www.w3.org/2000/svg"><path d="m72 424h-8c-17.673 0-32 14.327-32 32 0 17.673 14.327 32 32 32h72v-96h-32c-17.673 0-32 14.327-32 32z" fill="#75ae43"/><path d="m56 472c0-17.673 14.327-32 32-32h8c0-17.673 14.327-32 32-32h8v-16h-32c-17.673 0-32 14.327-32 32h-8c-17.673.028-31.977 14.377-31.95 32.05.025 16.148 12.077 29.746 28.105 31.712-2.729-4.805-4.161-10.236-4.155-15.762z" fill="#c6de3a"/><path d="m256 120-168 168 32 32v168h272v-168l32-32z" fill="#3c9ddc"/><path d="m392 256-32 32c0 92.784-75.216 168-168 168h-72v32h272v-168l32-32z" fill="#306bb4"/><path d="m336 144h48v104h-48z" fill="#efad15"/><path d="m368 144h16v104h-16z" fill="#cf7e2c"/><path d="m264 160-152 152 19.965 19.965 128.035-127.965 124 124 24-24z" fill="#0a4ea9"/><path d="m256 120-168 168 31.784 31.784 136.216-143.784 136.216 143.784 31.784-31.784z" fill="#9fc83e"/><path d="m256 152-152 152 15.784 15.784 136.216-143.784 136.216 143.784 15.784-15.784z" fill="#75ae43"/><g fill="#66c3ea"><path d="m456 400-23.793-35.566c-12.172-18.196-33.919-27.516-55.49-23.782-15.238 2.636-25.453 17.126-22.817 32.363v.001c2.638 15.237 17.127 25.451 32.364 22.814 13.053-2.259 26.384-2.399 39.481-.415z"/><path d="m488 488-16.122-37.617c-4.779-11.152-15.745-18.383-27.878-18.383-11.046 0-20 8.954-20 20 0 11.046 8.954 20 20 20 7.892 0 15.675 1.837 22.733 5.367z"/><path d="m488 336-16.122-37.617c-4.779-11.152-15.745-18.383-27.878-18.383-11.046 0-20 8.954-20 20 0 11.046 8.954 20 20 20 7.892 0 15.675 1.837 22.733 5.367z"/></g><path d="m369.9 385.178c-2.637-15.237 7.577-29.727 22.814-32.365 11.73-2.031 23.802-.226 34.425 5.146-12.745-14.009-31.763-20.537-50.425-17.308-15.237 2.638-25.451 17.128-22.814 32.365 1.824 10.546 9.5 19.129 19.777 22.116-1.886-3.045-3.169-6.424-3.777-9.954z" fill="#9fd9f1"/><path d="m440 468c0-11.046 8.954-20 20-20 4.095.004 8.147.84 11.91 2.457l-.032-.074c-4.779-11.152-15.745-18.383-27.878-18.383-11.046 0-20 8.954-20 20 .006 9.633 6.877 17.893 16.348 19.652-.227-1.204-.344-2.427-.348-3.652z" fill="#9fd9f1"/><path d="m452 296c9.298.005 18.08 4.277 23.824 11.589l-3.946-9.206c-4.779-11.152-15.745-18.383-27.878-18.383-11.046 0-20 8.954-20 20 0 6.288 2.965 12.208 8 15.974.014-11.036 8.964-19.974 20-19.974z" fill="#9fd9f1"/><path d="m224 376h64v112h-64z" fill="#cf7e2c"/><path d="m288 392v96h-64v-32c0-35.346 28.654-64 64-64z" fill="#efad15"/><path d="m288 296h-64v-32l32-32 32 32z" fill="#efad15"/><path d="m256 232v64h32v-32z" fill="#cf7e2c"/><path d="m248 352h16c22.091 0 40 17.909 40 40h-96c0-22.091 17.909-40 40-40z" fill="#efad15"/><path d="m268 352.2c-1.316-.131-2.65-.2-4-.2h-16c-22.091 0-40 17.909-40 40h24c0-20.543 15.56-37.746 36-39.8z" fill="#fed54d"/><path d="m32 88 48-16 16-48 16 48 48 16-48 16-16 48-16-48z" fill="#fed54d"/><path d="m128 168 40-16 16-40 16 40 40 16-40 16-16 40-16-40z" fill="#fed54d"/><ellipse cx="396" cy="360" fill="#fff" rx="12" ry="8"/><path d="m226.343 138.343 11.314 11.314 18.343-18.344 156.687 156.687-20.523 20.522-130.348-138.015c-3.034-3.212-8.097-3.357-11.309-.323-.111.105-.218.212-.323.323l-130.348 138.015-20.523-20.522 58.344-58.343-11.314-11.314-64 64c-3.124 3.124-3.124 8.189 0 11.314l29.657 29.657v60.686h-8c-19.001.024-35.373 13.388-39.2 32h-.8c-22.091 0-40 17.909-40 40s17.909 40 40 40h328c4.418 0 8-3.582 8-8v-85.726c8.198-.527 16.428-.174 24.551 1.052l30.249 4.584c4.368.661 8.446-2.344 9.107-6.712.299-1.973-.151-3.987-1.26-5.646l-23.793-35.566c-9.057-13.526-22.968-23.051-38.854-26.604v-10.069l16.778-16.777c3.036 12.578 14.283 21.446 27.222 21.464 6.649.008 13.205 1.556 19.155 4.522l21.267 10.633c3.952 1.976 8.757.375 10.734-3.576 1.053-2.105 1.125-4.567.198-6.73l-16.123-37.618c-6.031-14.101-19.894-23.242-35.231-23.231-6.616-.005-13.017 2.344-18.06 6.626l-33.94-33.94v-100.686c0-4.418-3.582-8-8-8h-48c-4.418 0-8 3.582-8 8v36.686l-72-73.556zm-186.343 317.657c.015-13.249 10.751-23.985 24-24h8c4.418 0 8-3.582 8-8 .015-13.249 10.751-23.985 24-24h8v80h-48c-13.249-.015-23.985-10.751-24-24zm177.013-72c3.665-14.119 16.4-23.982 30.987-24h16c14.587.018 27.322 9.881 30.987 24zm62.987 16v80h-48v-80zm16 80v-80h8c4.418 0 8-3.582 8-8-.03-26.497-21.503-47.97-48-48h-16c-26.497.03-47.97 21.503-48 48 0 4.418 3.582 8 8 8h8v80h-88v-156.819l128-135.53 128 135.53v8.7c-2.899.096-5.788.391-8.647.884-19.596 3.359-32.759 21.968-29.4 41.565 3.128 18.245 19.583 31.145 38.047 29.826v75.844zm129.558-111.118 13.708 20.491-12.319-1.866c-13.947-2.117-28.144-1.968-42.044.441-10.884 1.884-21.234-5.412-23.118-16.296s5.412-21.234 16.296-23.118c18.455-3.184 37.055 4.788 47.477 20.348zm18.442-80.882c8.935-.008 17.012 5.318 20.524 13.534l7.52 17.544-1.732-.867c-8.173-4.074-17.179-6.2-26.312-6.211-6.627 0-12-5.373-12-12s5.373-12 12-12zm-100-136h32v76.686l-32-32z"/><path d="m73.676 110.325 14.734 44.205c1.396 4.192 5.926 6.458 10.118 5.062 2.39-.796 4.266-2.672 5.062-5.062l14.734-44.2 44.206-14.741c4.191-1.398 6.456-5.929 5.058-10.12-.796-2.388-2.67-4.261-5.058-5.058l-44.206-14.736-14.734-44.205c-1.396-4.192-5.926-6.458-10.118-5.062-2.39.796-4.266 2.672-5.062 5.062l-14.734 44.205-44.206 14.736c-4.191 1.398-6.456 5.929-5.058 10.12.796 2.388 2.67 4.261 5.058 5.058zm8.854-30.736c2.389-.796 4.263-2.67 5.06-5.059l8.41-25.23 8.41 25.232c.797 2.389 2.671 4.263 5.06 5.059l25.23 8.409-25.23 8.411c-2.389.796-4.263 2.67-5.06 5.059l-8.41 25.23-8.41-25.23c-.797-2.389-2.671-4.263-5.06-5.059l-25.23-8.411z"/><path d="m191.428 109.029c-1.641-4.102-6.296-6.098-10.399-4.457-2.033.813-3.644 2.424-4.457 4.457l-14.726 36.817-36.817 14.726c-4.102 1.641-6.098 6.296-4.457 10.399.813 2.033 2.424 3.644 4.457 4.457l36.817 14.726 14.726 36.817c1.641 4.102 6.296 6.098 10.399 4.457 2.033-.813 3.644-2.424 4.457-4.457l14.726-36.817 36.817-14.726c4.102-1.641 6.098-6.296 4.457-10.399-.813-2.033-2.424-3.644-4.457-4.457l-36.817-14.726zm5.6 67.543c-2.033.813-3.644 2.424-4.457 4.457l-8.571 21.43-8.572-21.43c-.813-2.033-2.424-3.644-4.457-4.457l-21.43-8.572 21.43-8.572c2.033-.813 3.644-2.424 4.457-4.457l8.572-21.43 8.572 21.43c.813 2.033 2.424 3.644 4.457 4.457l21.43 8.572z"/><path d="m488 496c4.418.001 8.001-3.579 8.003-7.997 0-1.084-.22-2.157-.647-3.154l-16.123-37.618c-6.031-14.102-19.896-23.243-35.233-23.231-15.464 0-28 12.536-28 28s12.536 28 28 28c6.649.008 13.205 1.556 19.155 4.522l21.267 10.633c1.111.556 2.336.845 3.578.845zm-17.686-25.789c-8.174-4.074-17.181-6.2-26.314-6.211-6.627 0-12-5.373-12-12s5.373-12 12-12c8.935-.008 17.012 5.318 20.524 13.534l7.52 17.544z"/><path d="m261.657 226.343c-3.124-3.124-8.189-3.124-11.314 0l-32 32c-1.5 1.5-2.343 3.535-2.343 5.657v32c0 4.418 3.582 8 8 8h64c4.418 0 8-3.582 8-8v-32c0-2.122-.843-4.157-2.343-5.657zm-29.657 40.971 16-16v36.686h-16zm48 20.686h-16v-36.686l16 16z"/></svg>