<?xml version="1.0" encoding="iso-8859-1"?>
<!-- Generator: Adobe Illustrator 19.0.0, SVG Export Plug-In . SVG Version: 6.00 Build 0)  -->
<svg version="1.1" id="Capa_1" xmlns="http://www.w3.org/2000/svg" xmlns:xlink="http://www.w3.org/1999/xlink" x="0px" y="0px"
	 viewBox="0 0 512 512" style="enable-background:new 0 0 512 512;" xml:space="preserve">
<rect x="106.72" y="45.05" style="fill:#FFB125;" width="58.13" height="86.75"/>
<rect x="135.78" y="45.05" style="fill:#FF901D;" width="29.06" height="86.75"/>
<path style="fill:#FFB125;" d="M174.212,53.75H97.358c-1.201,0-2.175-0.974-2.175-2.175V29.534c0-1.201,0.974-2.175,2.175-2.175
	h76.854c1.201,0,2.175,0.974,2.175,2.175v22.041C176.387,52.776,175.413,53.75,174.212,53.75z"/>
<polygon style="fill:#E1EFFB;" points="427.307,167.437 247.78,48.014 68.253,167.437 68.253,450.535 427.388,450.535 
	427.388,167.437 "/>
<polygon style="fill:#CCDFED;" points="427.307,167.437 247.78,48.014 204.972,76.49 382.675,194.699 382.756,194.699 
	382.756,450.535 427.388,450.535 427.388,167.437 "/>
<path style="fill:#FF4C4C;" d="M34.681,215.387L244.786,75.623c1.839-1.223,4.232-1.223,6.071,0l210.104,139.764
	c5.917,3.936,13.618,3.936,19.534,0l0,0c10.49-6.978,10.49-22.388,0-29.366L250.857,33.263c-1.839-1.223-4.232-1.223-6.071,0
	L15.147,186.021c-10.49,6.978-10.49,22.388,0,29.366l0,0C21.063,219.323,28.764,219.323,34.681,215.387z"/>
<path style="fill:#FFB125;" d="M226.685,240.001H119.95c-4.446,0-8.051,3.604-8.051,8.051v202.585h122.836V248.051
	C234.735,243.605,231.131,240.001,226.685,240.001z"/>
<path style="fill:#FF901D;" d="M226.685,240.001h-61.418c4.446,0,8.051,3.604,8.051,8.051v202.585h61.418V248.051
	C234.735,243.605,231.131,240.001,226.685,240.001z"/>
<path style="fill:#2D5871;" d="M464.627,424.797H31.015c-7.135,0-12.92,5.784-12.92,12.92l0,0c0,7.135,5.784,12.92,12.92,12.92
	h433.611c7.135,0,12.92-5.784,12.92-12.92l0,0C477.546,430.581,471.762,424.797,464.627,424.797z"/>
<circle style="fill:#21D8DE;" cx="390.13" cy="370.06" r="114.59"/>
<path style="fill:#11B9C1;" d="M390.135,255.469c-7.637,0-15.097,0.754-22.316,2.179c52.6,10.384,92.27,56.76,92.27,112.407
	s-39.669,102.022-92.27,112.407c7.219,1.425,14.679,2.179,22.316,2.179c63.284,0,114.586-51.302,114.586-114.586
	S453.419,255.469,390.135,255.469z"/>
<path style="fill:#F33939;" d="M483.231,213.15c0.344-0.343,0.665-0.699,0.974-1.063c0.076-0.09,0.152-0.179,0.226-0.27
	c0.312-0.382,0.61-0.772,0.885-1.175c0.018-0.026,0.033-0.053,0.051-0.079c0.26-0.386,0.499-0.781,0.726-1.183
	c0.051-0.091,0.103-0.181,0.152-0.273c0.232-0.429,0.449-0.865,0.643-1.309c0.011-0.026,0.021-0.053,0.032-0.08
	c0.184-0.428,0.347-0.863,0.496-1.303c0.027-0.081,0.055-0.161,0.082-0.242c0.152-0.47,0.286-0.943,0.398-1.422
	c0.004-0.017,0.007-0.035,0.011-0.052c0.108-0.47,0.193-0.945,0.263-1.421c0.009-0.06,0.019-0.12,0.027-0.181
	c0.068-0.501,0.116-1.003,0.141-1.507c0-0.005,0-0.009,0-0.014c0.025-0.504,0.025-1.01,0.007-1.514
	c-0.001-0.035-0.002-0.071-0.003-0.106c-0.043-1.038-0.177-2.072-0.401-3.09c-0.003-0.013-0.005-0.026-0.008-0.039
	c-0.936-4.208-3.41-8.129-7.436-10.807l-22.815-15.177l-3.744,6.076c-4.073,6.61-12.816,8.527-19.281,4.226l-183.8-122.263
	c-1.839-1.223-4.232-1.223-6.071,0L34.681,198.645c-5.917,3.936-13.618,3.936-19.534,0l0,0c-2.539-1.689-4.458-3.874-5.768-6.312
	c-4.102,7.634-2.184,17.765,5.768,23.054l0,0c5.917,3.936,13.618,3.936,19.534,0L244.786,75.623c1.839-1.223,4.232-1.223,6.071,0
	l210.104,139.764c5.917,3.936,13.618,3.936,19.534,0l0,0c0.443-0.294,0.86-0.609,1.265-0.932c0.099-0.079,0.196-0.158,0.293-0.238
	c0.394-0.328,0.775-0.664,1.131-1.017C483.201,213.184,483.215,213.166,483.231,213.15z"/>
<path style="fill:#FFFFFF;" d="M371.921,424.03c-0.014,0-0.028,0-0.042,0c-3.606-0.012-7.042-1.528-9.483-4.182l-33.725-36.693
	c-4.835-5.26-4.49-13.443,0.77-18.278c5.261-4.835,13.443-4.49,18.279,0.771l24.262,26.397l66.899-71.845
	c4.868-5.229,13.055-5.521,18.282-0.652c5.229,4.869,5.521,13.054,0.652,18.283l-76.428,82.078
	C378.941,422.538,375.511,424.03,371.921,424.03z"/>
<path d="M434.667,256.615v-49.977l22.262,14.809c4.191,2.788,8.994,4.182,13.798,4.182c4.804,0,9.608-1.395,13.799-4.183
	c6.96-4.63,11.115-12.384,11.115-20.743s-4.155-16.113-11.115-20.743l-57.393-38.179c-3.346-2.225-7.865-1.318-10.092,2.029
	c-2.226,3.347-1.318,7.865,2.029,10.092l57.393,38.179c2.936,1.953,4.62,5.096,4.62,8.622s-1.684,6.669-4.62,8.622
	c-3.485,2.317-7.987,2.317-11.471,0l-33.568-22.33c-0.001-0.001-0.003-0.002-0.004-0.003L255.806,70.174l-0.918-0.611
	c-0.223-0.148-0.451-0.284-0.681-0.417c-0.046-0.027-0.091-0.058-0.137-0.084c-0.243-0.137-0.491-0.262-0.74-0.381
	c-0.035-0.017-0.069-0.037-0.105-0.054c-0.264-0.124-0.532-0.236-0.802-0.341c-0.022-0.008-0.043-0.019-0.065-0.027
	c-0.135-0.052-0.273-0.093-0.41-0.14c-3.698-1.27-7.83-0.793-11.193,1.444L64.222,186.994c-0.002,0.001-0.003,0.003-0.005,0.004
	L30.65,209.327c-3.485,2.317-7.988,2.317-11.471,0c-2.936-1.953-4.62-5.096-4.62-8.622s1.684-6.669,4.62-8.622L247.821,39.987
	l133.587,88.864c3.348,2.226,7.866,1.319,10.092-2.029c2.226-3.347,1.318-7.865-2.029-10.092L254.888,27.203
	c-4.293-2.856-9.841-2.856-14.133,0l-68.627,45.651V61.029h2.084c5.213,0,9.454-4.241,9.454-9.454V29.534
	c0-5.213-4.241-9.454-9.454-9.454H97.358c-5.213,0-9.454,4.241-9.454,9.454v22.041c0,5.213,4.241,9.454,9.454,9.454h2.083v60.176
	L11.115,179.96C4.155,184.59,0,192.345,0,200.704s4.155,16.114,11.115,20.744c8.383,5.576,19.215,5.575,27.597,0l22.262-14.809
	v128.419c0,4.02,3.259,7.279,7.279,7.279s7.279-3.259,7.279-7.279V196.955L247.821,82.347l172.288,114.608v54.954
	c-0.638-0.161-1.28-0.303-1.92-0.454c-0.27-0.064-0.539-0.13-0.81-0.192c-0.72-0.165-1.442-0.321-2.164-0.472
	c-0.402-0.085-0.806-0.166-1.209-0.247c-0.668-0.133-1.337-0.264-2.008-0.386c-0.488-0.089-0.979-0.169-1.469-0.252
	c-0.612-0.103-1.222-0.211-1.835-0.305c-1.04-0.16-2.084-0.305-3.133-0.438c-0.478-0.061-0.958-0.11-1.438-0.165
	c-0.68-0.078-1.36-0.155-2.043-0.222c-0.494-0.048-0.988-0.09-1.483-0.132c-0.685-0.059-1.371-0.112-2.06-0.159
	c-0.475-0.032-0.951-0.064-1.427-0.091c-0.751-0.043-1.504-0.075-2.258-0.104c-0.411-0.016-0.821-0.035-1.232-0.047
	c-1.099-0.031-2.202-0.049-3.308-0.051c-0.059,0-0.119-0.003-0.178-0.003c-58.797,0-108.002,41.856-119.384,97.336
	c-1.626,7.926-2.48,16.13-2.48,24.529c0,1.024,0.013,2.048,0.039,3.071c0.284,11.437,2.153,22.488,5.393,32.942
	c0.003,0.01,0.006,0.021,0.009,0.032c0.145,0.467,0.299,0.931,0.45,1.396c1.092,3.393,2.324,6.74,3.709,10.023h-35.857V248.051
	c0-8.453-6.877-15.329-15.329-15.329H119.95c-8.453,0-15.329,6.877-15.329,15.329v169.467H75.532v-36.845
	c0-4.02-3.259-7.279-7.279-7.279s-7.279,3.259-7.279,7.279v36.845H31.015c-11.137,0-20.199,9.061-20.199,20.199
	c0,11.137,9.061,20.199,20.199,20.199h274.76c21.912,21.047,51.65,34.004,84.36,34.004C457.331,491.92,512,437.251,512,370.055
	C512,318.567,479.903,274.435,434.667,256.615z M157.57,82.538l-43.571,28.983V61.029h43.571V82.538z M102.462,34.638h66.646v11.833
	h-4.259H106.72h-4.258V34.638z M119.178,248.051c0-0.426,0.346-0.771,0.771-0.771h106.735c0.426,0,0.771,0.346,0.771,0.771v169.467
	H119.178V248.051z M31.015,443.358c-3.11,0-5.641-2.531-5.641-5.641c0-3.111,2.531-5.641,5.641-5.641h37.238h43.646h122.836h50.479
	c2.309,3.898,4.835,7.664,7.563,11.282L31.015,443.358L31.015,443.358z M390.135,477.362c-46.953,0-86.954-30.314-101.472-72.397
	c-0.13-0.379-0.259-0.757-0.385-1.138c-0.155-0.466-0.307-0.933-0.456-1.401c-0.244-0.775-0.482-1.552-0.709-2.333
	c-0.039-0.134-0.081-0.267-0.119-0.401c-1.819-6.353-3.054-12.88-3.682-19.482c-0.01-0.11-0.019-0.219-0.029-0.329
	c-0.084-0.912-0.154-1.825-0.215-2.739c-0.016-0.241-0.032-0.482-0.046-0.724c-0.048-0.813-0.085-1.626-0.115-2.44
	c-0.01-0.264-0.023-0.527-0.03-0.792c-0.031-1.043-0.049-2.087-0.049-3.132c0-7.396,0.752-14.62,2.184-21.599
	c10.023-48.853,53.35-85.708,105.123-85.708c0.02,0,0.041,0.001,0.061,0.001c1.3,0.001,2.596,0.033,3.89,0.08
	c0.303,0.011,0.606,0.021,0.908,0.035c1.252,0.056,2.501,0.132,3.747,0.231c0.305,0.024,0.609,0.055,0.913,0.081
	c1.062,0.093,2.122,0.203,3.18,0.328c0.291,0.034,0.584,0.064,0.875,0.1c1.156,0.146,2.307,0.318,3.456,0.501
	c0.456,0.073,0.911,0.148,1.365,0.227c1.08,0.187,2.157,0.386,3.23,0.606c0.508,0.104,1.013,0.22,1.518,0.331
	c0.689,0.152,1.376,0.311,2.062,0.477c0.851,0.206,1.698,0.421,2.541,0.647c0.628,0.168,1.254,0.338,1.879,0.517
	c0.7,0.202,1.398,0.409,2.093,0.624c0.293,0.091,0.585,0.188,0.878,0.281c43.28,13.831,74.71,54.431,74.71,102.239
	C497.442,429.224,449.304,477.362,390.135,477.362z"/>
<path d="M462.126,314.223c-3.951-3.681-9.103-5.611-14.496-5.409c-5.397,0.192-10.396,2.475-14.074,6.427l-61.538,66.086
	l-18.938-20.605c-7.544-8.206-20.357-8.746-28.564-1.204c-8.206,7.543-8.746,20.357-1.203,28.563l33.725,36.693
	c3.801,4.135,9.202,6.517,14.841,6.535h0.042c5.591,0,10.984-2.347,14.794-6.439l76.428-82.078c3.68-3.952,5.601-9.1,5.409-14.496
	C468.359,322.9,466.077,317.901,462.126,314.223z M452.489,332.871l-76.428,82.079c-1.066,1.145-2.575,1.802-4.14,1.802v7.279
	l-0.018-7.279c-1.571-0.005-3.083-0.672-4.147-1.829l-33.725-36.693c-2.111-2.296-1.96-5.882,0.336-7.993
	c1.085-0.997,2.457-1.489,3.826-1.489c1.529,0,3.054,0.615,4.168,1.826l24.262,26.397c1.373,1.494,3.307,2.347,5.336,2.353
	c0.008,0,0.016,0,0.024,0c2.02,0,3.95-0.84,5.327-2.319l66.9-71.845c1.029-1.106,2.427-1.744,3.938-1.798
	c1.501-0.052,2.95,0.484,4.057,1.514c1.106,1.03,1.745,2.429,1.798,3.939C454.057,330.324,453.519,331.765,452.489,332.871z"/>
<g>
</g>
<g>
</g>
<g>
</g>
<g>
</g>
<g>
</g>
<g>
</g>
<g>
</g>
<g>
</g>
<g>
</g>
<g>
</g>
<g>
</g>
<g>
</g>
<g>
</g>
<g>
</g>
<g>
</g>
</svg>
