<svg id="Layer_1" enable-background="new 0 0 482 482" height="512" viewBox="0 0 482 482" width="512" xmlns="http://www.w3.org/2000/svg"><g><path d="m472.645 168.719v224.864c0 18.253-14.814 33.068-33.068 33.068h-317.455c-18.253 0-33.068-14.814-33.068-33.068v-224.864c0-18.262 14.806-33.068 33.068-33.068h317.455c18.261 0 33.068 14.806 33.068 33.068z" fill="#fada86"/></g><g><path d="m392.494 88.568v224.864c0 18.253-14.814 33.068-33.068 33.068h-317.455c-18.253 0-33.068-14.814-33.068-33.068v-224.864c0-18.262 14.806-33.068 33.068-33.068h317.455c18.262 0 33.068 14.806 33.068 33.068z" fill="#ffec8f"/></g><path d="m239.099 193.105 143.706 143.706c-5.985 5.985-14.252 9.689-23.379 9.689h-317.455c-9.127 0-17.394-3.704-23.379-9.689l143.706-143.706 21.064 10.226c10.946 5.316 23.726 5.316 34.672 0z" fill="#ffe773"/><g><g><path d="m392.494 88.568v20.398c0 9.797-8.904 16.931-18.402 15.146-89.905-16.901-180.595-3.572-260.806 38.257-4.324 2.255-9.457 2.337-13.843.207l-90.54-43.974v-30.034c0-18.263 14.805-33.068 33.068-33.068h317.455c18.263 0 33.068 14.805 33.068 33.068z" fill="#fff0a6"/></g></g><path d="m392.494 118.602v27.695l-134.753 65.45-18.642-18.642z" fill="#ffe773"/><path d="m257.741 211.747c-22.759 11.051-13.407 6.511-39.707 19.279-10.946 5.316-23.726 5.316-34.672 0-26.295-12.766-16.936-8.222-39.707-19.279l18.642-18.642 21.064 10.226c10.946 5.316 23.726 5.316 34.672 0l21.064-10.226z" fill="#fada86"/><path d="m162.298 193.105-18.642 18.642-134.753-65.45v-27.695z" fill="#ffe773"/><path d="m472.64 393.58c0 18.296-14.837 33.07-33.06 33.07h-317.46c-25.124 0-23.812-36.15-.28-36.15h281.59c18.246 0 33.06-14.809 33.06-33.07v-189.007c0-23.343 35.116-24.48 36.119-1.159.048 1.124.031 224.816.031 226.316z" fill="#ffec8f"/><path d="m401.591 306.5v-211c0-27.019-21.981-49-49-49h-303.591c-27.019 0-49 21.981-49 49v211c0 27.019 21.981 49 49 49h303.591c27.018 0 49-21.981 49-49zm-383.591 0v-173.519l161.529 78.443c13.513 6.563 29.017 6.565 42.533 0l119.055-57.817c4.471-2.171 6.336-7.556 4.164-12.027-2.171-4.471-7.552-6.337-12.027-4.164l-119.055 57.817c-8.518 4.137-18.289 4.137-26.807 0l-169.392-82.262v-17.471c0-17.094 13.907-31 31-31h303.591c17.094 0 31 13.906 31 31v211c0 17.094-13.906 31-31 31h-303.591c-17.093 0-31-13.906-31-31zm111.449-80.449c3.515 3.515 3.515 9.214 0 12.729l-72.543 72.543c-1.757 1.757-4.061 2.636-6.364 2.636-7.946 0-12.051-9.678-6.364-15.364l72.543-72.543c3.515-3.515 9.215-3.514 12.728-.001zm221.6 87.907c-2.304 0-4.606-.879-6.364-2.636l-72.543-72.543c-3.515-3.515-3.515-9.214 0-12.729 3.516-3.514 9.213-3.514 12.729 0l72.543 72.543c5.688 5.689 1.58 15.365-6.365 15.365zm130.951-138.458v211c0 27.019-21.981 49-49 49h-304c-27.019 0-49-21.981-49-49 0-4.971 4.029-9 9-9s9 4.029 9 9c0 17.094 13.907 31 31 31h304c17.094 0 31-13.906 31-31v-211c0-17.094-13.906-31-31-31-4.971 0-9-4.029-9-9s4.029-9 9-9c27.019 0 49 21.981 49 49z"/></svg>