<svg height="512" viewBox="0 0 64 64" width="512" xmlns="http://www.w3.org/2000/svg"><path d="m9.5 8.5h40a2 2 0 0 1 2 2v49a2 2 0 0 1 -2 2h-40a0 0 0 0 1 0 0v-53a0 0 0 0 1 0 0z" fill="#99a2b9" transform="matrix(0 1 -1 0 65.5 4.5)"/><path d="m55 56.5h-49a2.5 2.5 0 0 1 -2.5-2.5v-40a.5.5 0 0 1 .5-.5h53a.5.5 0 0 1 .5.5v40a2.5 2.5 0 0 1 -2.5 2.5zm-50.5-42v39.5a1.5 1.5 0 0 0 1.5 1.5h49a1.5 1.5 0 0 0 1.5-1.5v-39.5z" fill="#212a41"/><path d="m12.5 8.5h40a2 2 0 0 1 2 2v49a2 2 0 0 1 -2 2h-40a0 0 0 0 1 0 0v-53a0 0 0 0 1 0 0z" fill="#b7c0d7" transform="matrix(0 1 -1 0 68.5 1.5)"/><path d="m58 56.5h-49a2.5 2.5 0 0 1 -2.5-2.5v-40a.5.5 0 0 1 .5-.5h53a.5.5 0 0 1 .5.5v40a2.5 2.5 0 0 1 -2.5 2.5zm-50.5-42v39.5a1.5 1.5 0 0 0 1.5 1.5h49a1.5 1.5 0 0 0 1.5-1.5v-39.5z" fill="#212a41"/><path d="m6 8h49a2 2 0 0 1 2 2v4a0 0 0 0 1 0 0h-53a0 0 0 0 1 0 0v-4a2 2 0 0 1 2-2z" fill="#c2c2c2"/><path d="m57 14.5h-53a.5.5 0 0 1 -.5-.5v-4a2.5 2.5 0 0 1 2.5-2.5h49a2.5 2.5 0 0 1 2.5 2.5v4a.5.5 0 0 1 -.5.5zm-52.5-1h52v-3.5a1.5 1.5 0 0 0 -1.5-1.5h-49a1.5 1.5 0 0 0 -1.5 1.5z" fill="#212a41"/><path d="m58 54.5a.5.5 0 0 1 -.5-.5v-38a.5.5 0 0 1 1 0v38a.5.5 0 0 1 -.5.5z" fill="#99a2b9"/><path d="m9 54.5a.5.5 0 0 1 -.5-.5v-38a.5.5 0 0 1 1 0v38a.5.5 0 0 1 -.5.5z" fill="#d5def5"/><path d="m9 8h49a2 2 0 0 1 2 2v4a0 0 0 0 1 0 0h-53a0 0 0 0 1 0 0v-4a2 2 0 0 1 2-2z" fill="#e0e0e0"/><g fill="#212a41"><path d="m60 14.5h-53a.5.5 0 0 1 -.5-.5v-4a2.5 2.5 0 0 1 2.5-2.5h49a2.5 2.5 0 0 1 2.5 2.5v4a.5.5 0 0 1 -.5.5zm-52.5-1h52v-3.5a1.5 1.5 0 0 0 -1.5-1.5h-49a1.5 1.5 0 0 0 -1.5 1.5z"/><path d="m52 11.5h-2a.5.5 0 0 1 0-1h2a.5.5 0 0 1 0 1z"/><path d="m57 12.5a.5.5 0 0 1 -.354-.146l-2-2a.5.5 0 0 1 .708-.708l2 2a.5.5 0 0 1 -.354.854z"/><path d="m55 12.5a.5.5 0 0 1 -.354-.854l2-2a.5.5 0 0 1 .708.708l-2 2a.5.5 0 0 1 -.354.146z"/></g><path d="m18.014 36h8a6 6 0 0 1 6 6v4a0 0 0 0 1 0 0h-20a0 0 0 0 1 0 0v-4a6 6 0 0 1 6-6z" fill="#005b8a"/><path d="m32.014 46.5h-20a.5.5 0 0 1 -.5-.5v-4a6.508 6.508 0 0 1 6.5-6.5h8a6.508 6.508 0 0 1 6.5 6.5v4a.5.5 0 0 1 -.5.5zm-19.5-1h19v-3.5a5.506 5.506 0 0 0 -5.5-5.5h-8a5.506 5.506 0 0 0 -5.5 5.5z" fill="#212a41"/><path d="m28.014 36h-7a6 6 0 0 0 -6 6v4h19v-4a6 6 0 0 0 -6-6z" fill="#0079a8"/><path d="m34.014 46.5h-19a.5.5 0 0 1 -.5-.5v-4a6.508 6.508 0 0 1 6.5-6.5h7a6.508 6.508 0 0 1 6.5 6.5v4a.5.5 0 0 1 -.5.5zm-18.5-1h18v-3.5a5.506 5.506 0 0 0 -5.5-5.5h-7a5.506 5.506 0 0 0 -5.5 5.5z" fill="#212a41"/><rect fill="#e0c8a4" height="12" rx="4" width="10" x="19.014" y="24"/><path d="m25.014 36.5h-2a4.505 4.505 0 0 1 -4.5-4.5v-4a4.505 4.505 0 0 1 4.5-4.5h2a4.5 4.5 0 0 1 4.5 4.5v4a4.5 4.5 0 0 1 -4.5 4.5zm-2-12a3.5 3.5 0 0 0 -3.5 3.5v4a3.5 3.5 0 0 0 3.5 3.5h2a3.5 3.5 0 0 0 3.5-3.5v-4a3.5 3.5 0 0 0 -3.5-3.5z" fill="#212a41"/><path d="m21.041 36.922a4 4 0 0 0 6.946 0l.513-.9c-.161-.013-.322-.025-.486-.025h-7c-.164 0-.325.012-.486.025z" fill="#e0c8a4"/><path d="m24.514 39.438a4.451 4.451 0 0 1 -3.907-2.268l-.513-.9a.5.5 0 0 1 .395-.746c.174-.014.348-.026.525-.026h7c.177 0 .352.012.526.026a.5.5 0 0 1 .394.746l-.513.9a4.453 4.453 0 0 1 -3.907 2.268zm-3.039-2.764a3.5 3.5 0 0 0 6.078 0l.1-.174h-6.278z" fill="#212a41"/><path d="m30.014 26v2h-12v-2a4 4 0 0 1 4-4h4a4 4 0 0 1 4 4z" fill="#f9ac2f"/><path d="m30.014 28.5h-12a.5.5 0 0 1 -.5-.5v-2a4.505 4.505 0 0 1 4.5-4.5h4a4.5 4.5 0 0 1 4.5 4.5v2a.5.5 0 0 1 -.5.5zm-11.5-1h11v-1.5a3.5 3.5 0 0 0 -3.5-3.5h-4a3.5 3.5 0 0 0 -3.5 3.5z" fill="#212a41"/><path d="m18.014 28h3a0 0 0 0 1 0 0v2a1 1 0 0 1 -1 1h-2a0 0 0 0 1 0 0v-3a0 0 0 0 1 0 0z" fill="#f9ac2f"/><path d="m20.014 31.5h-2a.5.5 0 0 1 -.5-.5v-3a.5.5 0 0 1 .5-.5h3a.5.5 0 0 1 .5.5v2a1.5 1.5 0 0 1 -1.5 1.5zm-1.5-1h1.5a.5.5 0 0 0 .5-.5v-1.5h-2z" fill="#212a41"/><path d="m32.014 44.5a.5.5 0 0 1 -.5-.5v-2a3.487 3.487 0 0 0 -2.2-3.252.5.5 0 1 1 .371-.929 4.483 4.483 0 0 1 2.829 4.181v2a.5.5 0 0 1 -.5.5z" fill="#005b8a"/><path d="m17 44.5a.5.5 0 0 1 -.5-.5v-2a4.483 4.483 0 0 1 2.834-4.181.5.5 0 1 1 .371.929 3.487 3.487 0 0 0 -2.205 3.252v2a.5.5 0 0 1 -.5.5z" fill="#1e97c6"/><path d="m37.014 22h18v3h-18z" fill="#e0e0e0"/><path d="m55.014 25.5h-18a.5.5 0 0 1 -.5-.5v-3a.5.5 0 0 1 .5-.5h18a.5.5 0 0 1 .5.5v3a.5.5 0 0 1 -.5.5zm-17.5-1h17v-2h-17z" fill="#212a41"/><path d="m37.014 29h18v3h-18z" fill="#e0e0e0"/><path d="m55.014 32.5h-18a.5.5 0 0 1 -.5-.5v-3a.5.5 0 0 1 .5-.5h18a.5.5 0 0 1 .5.5v3a.5.5 0 0 1 -.5.5zm-17.5-1h17v-2h-17z" fill="#212a41"/><path d="m37.014 36h18v3h-18z" fill="#e0e0e0"/><path d="m55.014 39.5h-18a.5.5 0 0 1 -.5-.5v-3a.5.5 0 0 1 .5-.5h18a.5.5 0 0 1 .5.5v3a.5.5 0 0 1 -.5.5zm-17.5-1h17v-2h-17z" fill="#212a41"/><path d="m37.014 43h18v3h-18z" fill="#e0e0e0"/><path d="m55.014 46.5h-18a.5.5 0 0 1 -.5-.5v-3a.5.5 0 0 1 .5-.5h18a.5.5 0 0 1 .5.5v3a.5.5 0 0 1 -.5.5zm-17.5-1h17v-2h-17z" fill="#212a41"/></svg>