<svg id="filled_outline" height="512" viewBox="0 0 512 512" width="512" xmlns="http://www.w3.org/2000/svg" data-name="filled outline"><path d="m488 232a16 16 0 0 0 -16-16h-16a40 40 0 0 0 -40-40h-16v-16h48a24 24 0 0 0 24-24 24 24 0 0 0 -24-24h-32v-40h-136a40 40 0 0 0 -40 40h-16a32 32 0 0 0 -32 32h-104a24 24 0 0 0 -24 24 24 24 0 0 0 24 24h80v40h32v32h-64a16 16 0 0 0 -16 16 16 16 0 0 0 16 16h152v16h160a16 16 0 0 0 16-16 16 16 0 0 0 -16-16h-72v-32h96a16 16 0 0 0 16-16z" fill="#74a2b7"/><path d="m242.805 392.576 86.38-113.494-78.676-55.009z" fill="#516b5b"/><path d="m48 248 136-8 16 137.648a25.12 25.12 0 0 0 7.206 14.992 25.127 25.127 0 0 0 35.535 0l.064-.064a25.132 25.132 0 0 0 7.188-14.831l14.007-129.745 160 96 37.5-299.988a10.4 10.4 0 0 0 -15.255-10.45z" fill="#6f8b7b"/><path d="m446.243 33.562-398.243 214.438 136-8 269.018-207.528a10.234 10.234 0 0 0 -6.775 1.09z" fill="#a7d5c3"/><path d="m424 344 37.5-299.988a10.257 10.257 0 0 0 -3.64-9.257l-193.86 213.245z" fill="#a7d5c3"/><g fill="#ffc866"><path d="m319.751 380h64.498v16.001h-64.498z" transform="matrix(.496 -.868 .868 .496 -159.518 501.124)"/><path d="m119.716 316h56.569v16h-56.569z" transform="matrix(.707 -.707 .707 .707 -185.76 199.564)"/><path d="m97.479 384h85.041v16h-85.041z" transform="matrix(.659 -.753 .753 .659 -247.199 239.222)"/><path d="m210.817 444h82.365v16h-82.365z" transform="matrix(.486 -.874 .874 .486 -265.501 452.768)"/><path d="m275.056 384h17.889v16h-17.889z" transform="matrix(.447 -.894 .894 .447 -193.624 470.71)"/><path d="m315.056 432h17.889v16h-17.889z" transform="matrix(.447 -.894 .894 .447 -214.445 533.02)"/></g><path d="m88 64 24 24-8 32 32-16 32 16-8-32 24-24-32-8-16-32-16 32z" fill="#f9d59b"/><path d="m427.5 351.193a8 8 0 0 0 4.437-6.2l37.5-299.987a18.4 18.4 0 0 0 -26.987-18.488l-398.243 214.438a8 8 0 0 0 4.263 15.03l128.456-7.556 15.123 130.1a33.151 33.151 0 0 0 61.469 13.179l73.5-96.57 92.867 55.72a8 8 0 0 0 7.615.334zm-167.147 5.117 10.258-95.01 42.6 25.561zm16.055-110.195 29.274-32.787-11.936-10.656-35.714 40a8 8 0 0 0 -1.988 4.468l-14 129.669a17.07 17.07 0 0 1 -1.963 6.131l-3.247 4.267a17.118 17.118 0 0 1 -28.891-10.484l-15.474-133.152 141.6-109.237-9.769-12.668-143.233 110.493-97.416 5.73 366.385-197.289a2.4 2.4 0 0 1 3.524 2.415l-35.975 287.8z"/><path d="m287.606 124h162.788v16h-162.788z" transform="matrix(.676 -.737 .737 .676 22.357 314.822)"/><path d="m319.751 380h64.498v16.001h-64.498z" transform="matrix(.496 -.868 .868 .496 -159.518 501.124)"/><path d="m119.716 316h56.569v16h-56.569z" transform="matrix(.707 -.707 .707 .707 -185.754 199.549)"/><path d="m97.479 384h85.041v16h-85.041z" transform="matrix(.659 -.753 .753 .659 -247.201 239.227)"/><path d="m210.817 444h82.365v16h-82.365z" transform="matrix(.486 -.874 .874 .486 -265.501 452.768)"/><path d="m275.056 384h17.889v16h-17.889z" transform="matrix(.447 -.894 .894 .447 -193.624 470.71)"/><path d="m315.056 432h17.889v16h-17.889z" transform="matrix(.447 -.894 .894 .447 -214.445 533.02)"/><path d="m191.71 61.865a8 8 0 0 0 -5.77-5.626l-28.43-7.108-14.355-28.709a8 8 0 0 0 -14.31 0l-14.355 28.709-28.43 7.108a8 8 0 0 0 -3.717 13.418l20.8 20.8-6.9 27.606a8 8 0 0 0 11.339 9.095l28.418-14.214 28.422 14.211a8 8 0 0 0 11.339-9.095l-6.9-27.606 20.8-20.8a8 8 0 0 0 2.049-7.789zm-37.367 20.478a8 8 0 0 0 -2.1 7.6l3.782 15.126-16.443-8.221a8 8 0 0 0 -7.156 0l-16.443 8.221 3.782-15.126a8 8 0 0 0 -2.1-7.6l-14.01-14.009 18.293-4.573a8 8 0 0 0 5.215-4.183l8.837-17.689 8.845 17.689a8 8 0 0 0 5.215 4.183l18.293 4.573z"/></svg>